# xmcd
#
# Track frame offsets:
#	150
#	20250
#	36675
#	60825
#	74775
#	91200
#	108300
#	123150
#	138750
#	150825
#	167625
#	185925
#	200950
#	215250
#	226650
#	246975
#
# Disc length: 3530 seconds
#
# Revision: 0
# Processed by: cddbd v1.5.2PL0 Copyright (c) Steve Scherf et al.
# Submitted via: EZCDAudioConverter 1.6.1.1
#
DISCID=dc0dc810
DTITLE=piano - 鋼琴之愛05
DYEAR=1900
DGENRE=
TTITLE0=Right here waiting for you在此等你
TTITLE1=Saling航行 
TTITLE2=Send in the clowns小丑進場
TTITLE3=Dust in the wind風中之塵
TTITLE4=Moonlight flower月光之花
TTITLE5=Memory回憶
TTITLE6=Yesterday once more昨日重現
TTITLE7=Dont know much別知道太多
TTITLE8=Perhaps love也許是愛
TTITLE9=I want to know what love is愛的真諦
TTITLE10=Some times when we touch兩情相悅
TTITLE11=Nothing gonna change my love for you真情永不移
TTITLE12=Hellow哈囉
TTITLE13=Women in love戀愛中的女人
TTITLE14=hand in hand心手相連
TTITLE15=What a wonderful world美好世界
EXTD=
EXTT0=
EXTT1=
EXTT2=
EXTT3=
EXTT4=
EXTT5=
EXTT6=
EXTT7=
EXTT8=
EXTT9=
EXTT10=
EXTT11=
EXTT12=
EXTT13=
EXTT14=
EXTT15=
PLAYORDER=
